<svg width="22" height="22" viewBox="0 0 22 22" fill="none" xmlns="http://www.w3.org/2000/svg">
<path d="M20.9667 12.3246L19.4486 3.76915C19.2422 2.60675 18.1225 1.82775 16.9529 2.03274L3.93194 4.31419C2.76209 4.51915 1.97816 5.63158 2.18442 6.79399L2.29598 7.42271C1.53411 7.75295 1 8.50828 1 9.38563V17.8594C1 19.0397 1.96641 20 3.15428 20H16.08C17.2678 20 18.2343 19.0397 18.2343 17.8594V14.977L19.2192 14.8044C19.7859 14.7051 20.2797 14.3925 20.6098 13.9241C20.9399 13.4557 21.0666 12.8876 20.9667 12.3246ZM19.6473 13.2544C19.4973 13.4673 19.2727 13.6094 19.0152 13.6545L18.2343 13.7913V9.3856C18.2343 8.20525 17.2678 7.24496 16.08 7.24496H3.45768L3.34167 6.59121C3.29623 6.33527 3.35389 6.07707 3.5039 5.86413C3.65392 5.65124 3.87843 5.50914 4.13601 5.46399L17.157 3.18258C17.2133 3.17269 17.2703 3.16772 17.3275 3.16771C17.7935 3.16771 18.2077 3.5004 18.2914 3.97185L19.8095 12.5273C19.8549 12.7833 19.7973 13.0415 19.6473 13.2544ZM16.08 18.8324H3.15428C2.61434 18.8324 2.17506 18.3959 2.17506 17.8594V13.7097H17.0592V17.8593C17.0592 18.3959 16.6199 18.8324 16.08 18.8324ZM3.15428 8.41262H16.08C16.6199 8.41262 17.0592 8.84911 17.0592 9.38563V9.89355H2.17506V9.38563C2.17506 8.84911 2.61434 8.41262 3.15428 8.41262ZM17.0592 11.0612V12.5421H2.17506V11.0612H17.0592Z" fill="black"/>
<path d="M6.65409 16.4878H3.98865C3.66418 16.4878 3.40112 16.7492 3.40112 17.0716C3.40112 17.394 3.66418 17.6554 3.98865 17.6554H6.65409C6.97856 17.6554 7.24162 17.394 7.24162 17.0716C7.24162 16.7492 6.97856 16.4878 6.65409 16.4878Z" fill="black"/>
</svg>
