<svg width="93" height="93" viewBox="0 0 93 93" fill="none" xmlns="http://www.w3.org/2000/svg">
<g filter="url(#filter0_d_1_9)">
<rect x="14" y="10" width="65" height="65" rx="16" fill="#313341"/>
</g>
<path d="M31.3657 37.6912C31.0964 37.1917 30.9716 36.6269 31.0054 36.0604C31.0392 35.4939 31.2302 34.9479 31.557 34.4839C32.091 33.7004 32.8062 33.0572 33.6418 32.609L43.0175 27.7294C43.939 27.2502 44.9624 27 46.0011 27C47.0397 27 48.0631 27.2502 48.9846 27.7294L58.359 32.6128C59.1947 33.061 59.9099 33.7041 60.4439 34.4877C60.7707 34.9517 60.9617 35.4976 60.9955 36.0641C61.0292 36.6307 60.9045 37.1954 60.6351 37.695C60.3452 38.2435 59.9103 38.7019 59.3778 39.0204C58.8454 39.3388 58.2357 39.5051 57.6153 39.5011H34.3868C33.7658 39.505 33.1556 39.3383 32.6229 39.0191C32.0902 38.6999 31.6553 38.2406 31.3657 37.6912ZM59.7502 54.5002C59.7502 53.8372 59.4868 53.2013 59.018 52.7325C58.5492 52.2637 57.9134 52.0003 57.2504 52.0003V42.001H54.7505V52.0003H51.0007V42.001H48.5009V52.0003H43.5012V42.001H41.0014V52.0003H37.2516V42.001H34.7518V52.0003C34.0888 52.0003 33.4529 52.2637 32.9841 52.7325C32.5153 53.2013 32.2519 53.8372 32.2519 54.5002C31.9204 54.5002 31.6025 54.6318 31.3681 54.8663C31.1337 55.1007 31.002 55.4186 31.002 55.7501C31.002 56.0816 31.1337 56.3995 31.3681 56.6339C31.6025 56.8683 31.9204 57 32.2519 57H59.7502C60.0817 57 60.3996 56.8683 60.634 56.6339C60.8684 56.3995 61.0001 56.0816 61.0001 55.7501C61.0001 55.4186 60.8684 55.1007 60.634 54.8663C60.3996 54.6318 60.0817 54.5002 59.7502 54.5002Z" fill="white"/>
<defs>
<filter id="filter0_d_1_9" x="0" y="0" width="93" height="93" filterUnits="userSpaceOnUse" color-interpolation-filters="sRGB">
<feFlood flood-opacity="0" result="BackgroundImageFix"/>
<feColorMatrix in="SourceAlpha" type="matrix" values="0 0 0 0 0 0 0 0 0 0 0 0 0 0 0 0 0 0 127 0" result="hardAlpha"/>
<feOffset dy="4"/>
<feGaussianBlur stdDeviation="7"/>
<feComposite in2="hardAlpha" operator="out"/>
<feColorMatrix type="matrix" values="0 0 0 0 0.192157 0 0 0 0 0.2 0 0 0 0 0.254902 0 0 0 0.15 0"/>
<feBlend mode="normal" in2="BackgroundImageFix" result="effect1_dropShadow_1_9"/>
<feBlend mode="normal" in="SourceGraphic" in2="effect1_dropShadow_1_9" result="shape"/>
</filter>
</defs>
</svg>
