<svg width="17" height="18" viewBox="0 0 17 18" fill="none" xmlns="http://www.w3.org/2000/svg">
<path d="M9.99725 7.30481C10.1899 7.30481 10.3747 7.38135 10.511 7.5176C10.6472 7.65384 10.7237 7.83863 10.7237 8.03131V12.1481C10.7237 12.3408 10.6472 12.5256 10.511 12.6618C10.3747 12.7981 10.1899 12.8746 9.99725 12.8746C9.80457 12.8746 9.61978 12.7981 9.48354 12.6618C9.34729 12.5256 9.27075 12.3408 9.27075 12.1481V8.03131C9.27075 7.83863 9.34729 7.65384 9.48354 7.5176C9.61978 7.38135 9.80457 7.30481 9.99725 7.30481Z" fill="#6B7280"/>
<path d="M7.81774 8.03131C7.81774 7.83863 7.7412 7.65384 7.60495 7.5176C7.46871 7.38135 7.28392 7.30481 7.09124 7.30481C6.89856 7.30481 6.71378 7.38135 6.57753 7.5176C6.44129 7.65384 6.36475 7.83863 6.36475 8.03131V12.1481C6.36475 12.3408 6.44129 12.5256 6.57753 12.6618C6.71378 12.7981 6.89856 12.8746 7.09124 12.8746C7.28392 12.8746 7.46871 12.7981 7.60495 12.6618C7.7412 12.5256 7.81774 12.3408 7.81774 12.1481V8.03131Z" fill="#6B7280"/>
<path fill-rule="evenodd" clip-rule="evenodd" d="M5.26566 3.58885C5.26566 2.71183 5.61108 1.87073 6.22593 1.25059C6.84077 0.630438 7.67469 0.282043 8.54421 0.282043C9.41373 0.282043 10.2476 0.630438 10.8625 1.25059C11.4773 1.87073 11.8228 2.71183 11.8228 3.58885H15.3993C15.6365 3.58885 15.8639 3.68387 16.0316 3.853C16.1993 4.02213 16.2935 4.25152 16.2935 4.49071C16.2935 4.7299 16.1993 4.95929 16.0316 5.12842C15.8639 5.29755 15.6365 5.39257 15.3993 5.39257H14.5052V11.9461C14.5052 13.9662 14.5052 14.9763 14.1154 15.7483C13.7725 16.427 13.2253 16.9789 12.5524 17.3247C11.787 17.7179 10.7855 17.7179 8.78265 17.7179H8.30577C6.30288 17.7179 5.30143 17.7179 4.53604 17.3247C3.86309 16.9789 3.31596 16.427 2.97307 15.7483C2.58322 14.9763 2.58322 13.9662 2.58322 11.9461V5.39257H1.68907C1.45193 5.39257 1.2245 5.29755 1.05681 5.12842C0.889126 4.95929 0.794922 4.7299 0.794922 4.49071C0.794922 4.25152 0.889126 4.02213 1.05681 3.853C1.2245 3.68387 1.45193 3.58885 1.68907 3.58885H5.26566ZM7.05396 3.58885C7.05396 3.19021 7.21097 2.80789 7.49045 2.526C7.76992 2.24412 8.14897 2.08576 8.54421 2.08576C8.93945 2.08576 9.3185 2.24412 9.59797 2.526C9.87745 2.80789 10.0345 3.19021 10.0345 3.58885H7.05396ZM4.37152 5.39257H12.7169V11.9461C12.7169 12.9862 12.7157 13.6572 12.674 14.1682C12.6346 14.6588 12.5667 14.8404 12.5214 14.9294C12.35 15.2685 12.0767 15.5442 11.7405 15.717C11.6523 15.7627 11.4722 15.8313 10.9858 15.8709C10.4791 15.913 9.8139 15.9142 8.78265 15.9142H8.30577C7.27452 15.9142 6.60927 15.913 6.10259 15.8709C5.61617 15.8313 5.43615 15.7627 5.34793 15.717C5.01132 15.5444 4.73755 15.2686 4.56584 14.9294C4.52173 14.8404 4.45378 14.6588 4.41443 14.1682C4.37271 13.6572 4.37152 12.9862 4.37152 11.9461V5.39257Z" fill="#6B7280"/>
</svg>
