<svg width="66" height="58" viewBox="0 0 66 58" fill="none" xmlns="http://www.w3.org/2000/svg">
<rect y="9.35486" width="66" height="39.2903" rx="6.15054" fill="white"/>
<path d="M59.6839 0L59.5944 9.35484H42.3393L59.6839 0Z" fill="white"/>
<path d="M47.0092 6.86023C40.7828 9.97851 34.245 9.35485 29.2639 9.35485C27.6035 10.4982 24.9054 13.1592 24.9054 13.4086C24.9054 13.7204 31.4431 17.4624 33.9337 17.4624C36.4243 17.4624 40.4714 18.7097 41.0941 18.7097C41.5922 18.7097 49.396 16.2151 53.2356 14.9678L47.0092 6.86023Z" fill="white"/>
<path d="M6.84929 58L6.9387 48.1246L24.1938 48.6452L6.84929 58Z" fill="white"/>
<path d="M19.5239 51.1398C25.7503 48.0215 32.2881 48.6451 37.2692 48.6451C38.9296 47.5018 41.6277 44.8408 41.6277 44.5914C41.6277 44.2796 35.0899 40.5376 32.5994 40.5376C30.1088 40.5376 26.0616 39.2903 25.439 39.2903C24.9409 39.2903 17.1371 41.7849 13.2975 43.0322L19.5239 51.1398Z" fill="white"/>
<rect x="6.23621" y="15.0955" width="53.5472" height="28.0645" rx="3.91398" fill="#3621A0"/>
<ellipse cx="23.386" cy="29.1498" rx="3.6378" ry="3.64372" fill="#E3D2AF"/>
<ellipse cx="33.26" cy="29.1498" rx="3.6378" ry="3.64372" fill="#E3D2AF"/>
<ellipse cx="43.1342" cy="29.1498" rx="3.63779" ry="3.64372" fill="#E3D2AF"/>
<path d="M15.0764 27.5562C15.3087 28.0776 16.3747 30.3173 16.5404 30.6308C16.6508 30.842 16.7378 30.9789 16.7743 30.9952C16.8447 31.0289 16.9773 30.9467 17.1328 30.7697C17.2784 30.6069 17.3422 30.4871 17.4213 30.2335L17.4863 30.0286L16.8793 28.7171C16.4141 27.7168 16.2541 27.3942 16.2028 27.352C15.9947 27.1845 15.3728 27.1402 15.0742 27.2737L14.9711 27.3199L15.0764 27.5562Z" fill="#ffff"/>
<path d="M14.1619 27.7662C13.1826 28.4387 12.6593 29.3241 12.6941 30.2497C12.714 30.7619 12.8647 31.2025 13.3223 32.0985C14.4362 34.2706 15.6575 35.8802 16.8684 36.7649C17.1582 36.9773 18.0852 37.5461 18.6303 37.8494C20.4047 38.8305 21.8814 39.2967 23.0698 39.2471C23.5708 39.2249 23.8422 39.1621 24.2899 38.9618C24.6671 38.7931 24.6973 38.7731 24.9766 38.5309C25.3816 38.1836 25.6914 37.8855 25.9312 37.6056C26.1819 37.3209 26.4352 36.9764 26.4149 36.9529C26.4047 36.9445 25.4856 36.7075 24.3677 36.426C22.9722 36.0765 22.3311 35.9301 22.3166 35.9561C22.3064 35.977 22.2266 36.0681 22.1404 36.1522C22.0166 36.276 21.937 36.3311 21.7416 36.4185C21.2529 36.6436 21.013 36.5653 20.0775 35.8896C19.5362 35.4999 18.1122 34.3849 17.2369 33.6692C16.4067 32.9887 16.3381 32.9151 16.1932 32.524C16.0468 32.1369 16.0977 31.7689 16.3437 31.4081C16.4063 31.3149 16.4515 31.2264 16.4442 31.2101C16.437 31.1938 16.164 30.632 15.8399 29.9628C15.5158 29.2936 15.1164 28.4628 14.9507 28.12L14.6511 27.4985L14.5004 27.5692C14.4163 27.6068 14.2647 27.6974 14.1619 27.7662Z" fill="#ffff"/>
<path d="M22.7856 35.1273C22.6221 35.3372 22.4932 35.5154 22.498 35.5262C22.5041 35.5398 26.374 36.5438 26.6229 36.5986C26.6823 36.6078 26.6838 36.5746 26.642 36.1667C26.5884 35.6372 26.5258 35.4601 26.3619 35.3478C26.185 35.2283 23.8383 34.6565 23.4929 34.6481C23.1901 34.6403 23.1272 34.6815 22.7856 35.1273Z" fill="#ffff"/>
</svg>
