<svg width="83" height="42" viewBox="0 0 83 42" fill="none" xmlns="http://www.w3.org/2000/svg">
<path d="M1.18475 41.5212C0.57977 41.5212 0.504148 40.9667 0.806637 40.5634C1.7141 39.3282 1.7141 39.3282 1.7141 36.9335V28.1361C1.7141 25.7414 1.7141 25.7414 0.806637 24.5062C0.504148 24.1029 0.57977 23.5484 1.18475 23.5484H7.71347C13.3851 23.5484 15.6538 25.565 15.6538 28.5394C15.6538 32.2449 12.7045 34.4632 7.03287 35.1186C6.73038 35.1438 6.55393 35.3454 6.55393 35.6479V36.9335C6.55393 39.3282 6.55393 39.3282 7.46139 40.5634C7.76388 40.9667 7.68826 41.5212 7.08328 41.5212H1.18475ZM6.55393 32.7239C6.55393 33.0768 6.75559 33.2532 7.10849 33.1776C9.67964 32.5726 10.6123 30.9593 10.6123 28.8419C10.6123 26.8505 9.65444 25.3885 7.8395 25.3885C6.65476 25.3885 6.55393 25.8422 6.55393 27.153V32.7239ZM17.6405 41.5212C17.0355 41.5212 16.9599 40.9667 17.2623 40.5634C18.1698 39.3282 18.1698 39.3282 18.1698 36.9335V28.1361C18.1698 25.7414 18.1698 25.7414 17.2623 24.5062C16.9599 24.1029 17.0355 23.5484 17.6405 23.5484H23.539C24.144 23.5484 24.2196 24.1029 23.9171 24.5062C23.0096 25.7414 23.0096 25.7414 23.0096 28.1361V38.2191C23.0096 39.1013 23.1861 39.8828 24.9506 39.8828C26.1858 39.8828 27.1941 39.6307 28.6561 37.0091C29.3367 35.774 29.4627 35.5471 29.8661 35.5471C30.3198 35.5471 30.5467 35.8748 30.4962 36.631L30.1937 40.4877C30.1433 41.2188 29.74 41.5212 29.0594 41.5212H17.6405ZM31.7657 41.5212C31.3623 41.5212 31.3119 40.9667 31.5136 40.5634C32.1186 39.3282 32.2698 39.3534 32.9756 37.0595C34.3116 32.9255 35.8745 28.9175 38.244 24.481C38.5717 23.8761 38.9246 23.5484 39.58 23.5484H40.9916C41.6722 23.5484 42.0755 23.8761 42.378 24.4558C44.571 28.7915 46.0835 32.8247 47.2178 37.0343C47.5707 38.5972 48.1757 40.0844 48.5286 40.6138C48.7555 41.0171 48.6546 41.5212 48.1505 41.5212H42.1007C41.4957 41.5212 41.4201 40.9667 41.7226 40.5634C42.6301 39.3282 42.5292 39.3282 42.0251 37.0091C41.9999 36.9083 41.8486 36.8579 41.5461 36.8579H35.9501C35.6476 36.8579 35.4459 37.0091 35.3955 37.3368C35.2191 38.9249 35.4459 39.5046 36.0509 40.5129C36.3534 40.9919 36.3282 41.5212 35.7484 41.5212H31.7657ZM35.9501 34.5136C35.8493 34.8665 36.0257 35.0934 36.3786 35.0934H40.8907C41.2437 35.0934 41.4201 34.8665 41.2941 34.5136C40.6639 32.5222 39.8825 30.556 39.0002 28.4386C38.8237 28.0605 38.5465 27.9344 38.3952 28.2117C37.513 29.8502 36.6055 32.0937 35.9501 34.5136ZM52.1939 41.5212C50.7067 41.5212 50.0009 41.4708 50.0009 40.6642C50.0009 40.0844 50.505 39.2778 51.4629 37.5133L56.0254 28.9427C57.0337 27.0522 57.7647 26.0691 57.7647 25.6154C57.7647 25.1364 57.5127 25.1868 56.0002 25.1616C54.2609 25.1616 53.177 25.3885 51.8914 27.4555C51.1856 28.5898 51.1352 28.8419 50.7319 28.8419C50.3033 28.8419 50.0513 28.489 50.1017 27.7328L50.2781 24.5819C50.3286 23.8508 50.7319 23.5484 51.4125 23.5484H62.9071C63.4868 23.5484 63.8397 23.5484 63.8397 24.2794C63.8397 25.1616 62.655 27.0018 61.2938 29.6233L56.8321 38.1434C56.454 38.8745 56.2271 39.2274 56.2271 39.4038C56.2271 39.8828 56.58 39.8828 57.9664 39.8828C59.7813 39.8828 60.9913 39.6307 62.3021 37.4628C63.0331 36.3033 63.0835 36.0512 63.4868 36.0512C63.9406 36.0512 64.1926 36.3789 64.117 37.1352L63.7893 40.4877C63.7137 41.2188 63.3608 41.5212 62.655 41.5212H52.1939ZM65.7602 41.5212C65.3569 41.5212 65.3065 40.9667 65.5081 40.5634C66.1131 39.3282 66.2644 39.3534 66.9702 37.0595C68.3062 32.9255 69.869 28.9175 72.2385 24.481C72.5662 23.8761 72.9191 23.5484 73.5745 23.5484H74.9861C75.6667 23.5484 76.07 23.8761 76.3725 24.4558C78.5656 28.7915 80.078 32.8247 81.2124 37.0343C81.5653 38.5972 82.1702 40.0844 82.5231 40.6138C82.75 41.0171 82.6492 41.5212 82.145 41.5212H76.0953C75.4903 41.5212 75.4147 40.9667 75.7171 40.5634C76.6246 39.3282 76.5238 39.3282 76.0196 37.0091C75.9944 36.9083 75.8432 36.8579 75.5407 36.8579H69.9446C69.6422 36.8579 69.4405 37.0091 69.3901 37.3368C69.2136 38.9249 69.4405 39.5046 70.0455 40.5129C70.348 40.9919 70.3228 41.5212 69.743 41.5212H65.7602ZM69.9446 34.5136C69.8438 34.8665 70.0203 35.0934 70.3732 35.0934H74.8853C75.2382 35.0934 75.4147 34.8665 75.2886 34.5136C74.6584 32.5222 73.877 30.556 72.9947 28.4386C72.8183 28.0605 72.541 27.9344 72.3898 28.2117C71.5075 29.8502 70.6 32.0937 69.9446 34.5136Z" fill="black"/>
<path d="M73.0135 19.2557C72.4479 19.2557 72.3495 18.7195 72.6446 18.3295C73.5299 17.1351 73.5299 17.1351 73.5299 14.8196V10.9928C73.5299 8.87225 73.5299 8.87225 72.9643 7.79978C72.7676 7.36104 72.6692 6.77606 73.284 6.62981L76.7762 5.72796C77.5139 5.55734 78.1287 5.63047 78.1287 7.0198V14.8196C78.1533 17.1351 78.1287 17.1351 79.0141 18.3295C79.3092 18.7195 79.2354 19.2557 78.6452 19.2557H73.0135ZM72.9889 2.33993C72.9889 0.999347 74.1693 0 75.7925 0C77.391 0 78.5714 0.999347 78.5714 2.33993C78.5714 3.72927 77.391 4.75299 75.7925 4.75299C74.1693 4.75299 72.9889 3.72927 72.9889 2.33993Z" fill="black"/>
<path d="M72.9889 2.33993C72.9889 0.999347 74.1693 0 75.7925 0C77.391 0 78.5714 0.999347 78.5714 2.33993C78.5714 3.72927 77.391 4.75299 75.7925 4.75299C74.1693 4.75299 72.9889 3.72927 72.9889 2.33993Z" fill="#1574F6"/>
<path d="M51.499 19.2557C50.9826 19.2557 50.9826 18.7438 51.1547 18.2807C51.8433 16.5745 51.9171 15.5752 51.9417 14.5514L52.1138 6.31293C52.1384 3.99737 52.1876 3.99737 51.3023 2.80303C50.9826 2.41304 51.0809 1.8768 51.6712 1.8768H56.2454C56.8848 1.8768 56.934 1.9743 57.4504 3.14427L60.8442 10.6516C61.0163 11.0415 61.3115 11.0659 61.4836 10.6516L64.8774 2.87615C65.1971 2.12054 65.4922 1.8768 65.9103 1.8768H70.3123C70.9026 1.8768 71.0009 2.41304 70.6812 2.80303C69.7959 3.99737 69.8205 3.99737 69.8697 6.31293L70.0664 14.8196C70.1156 17.1351 70.1402 17.1351 71.0255 18.3295C71.3206 18.7195 71.2469 19.2557 70.6566 19.2557H64.9266C64.3363 19.2557 64.2626 18.7195 64.5577 18.3295C65.443 17.1351 65.4184 17.1351 65.3692 14.8196L65.1971 7.77539C65.1971 7.2879 64.8282 7.23915 64.6315 7.67789L61.0409 16.1358C60.672 16.9645 60.254 17.2326 59.6146 17.2326C59.0243 17.2326 58.6063 16.9645 58.2128 16.1358L54.4009 7.65351C54.2042 7.1904 53.8107 7.26353 53.8107 7.75101C53.8107 9.33534 53.8353 10.8953 53.9337 12.4553C54.2534 16.0627 54.9174 16.672 55.7043 18.1345C55.9749 18.6707 55.9503 19.2557 55.4092 19.2557H51.499Z" fill="black"/>
<path d="M35.1239 19.4994C33.0582 19.4994 31.1154 18.2807 31.1154 15.8677C31.1154 12.7477 35.001 11.2122 38.4194 10.2859C38.7145 10.2128 38.8374 10.0178 38.8374 9.70096C38.7882 7.87288 38.3456 7.2879 37.7799 7.2879C35.665 7.2879 36.87 10.7247 33.9927 10.7247C32.7139 10.7247 32.0253 9.87158 32.0253 8.84785C32.0253 6.58104 34.9272 5.5817 37.8291 5.5817C41.7148 5.5817 43.4117 7.16603 43.4117 10.4078V16.0139C43.4117 17.3301 43.8297 17.4764 44.4937 17.3789C45.1331 17.3301 45.3791 17.8907 44.9856 18.3051C44.4691 18.8657 43.2149 19.5238 41.9853 19.5238C40.8048 19.5238 39.7719 19.0851 39.3047 17.9151C39.1817 17.5982 39.0342 17.5982 38.7882 17.9151C37.8045 19.0851 36.4274 19.4994 35.1239 19.4994ZM35.6896 15.1121C35.6896 16.2333 36.3044 16.867 37.0914 16.867C38.198 16.867 38.8128 15.4533 38.8128 14.6733L38.8374 12.3578C38.8374 12.0165 38.4685 11.8703 37.9767 12.0896C36.3536 12.7965 35.6896 13.9177 35.6896 15.1121Z" fill="black"/>
<path d="M23.0194 19.4994C20.8061 19.4994 18.4944 18.9632 18.1009 16.4283C17.9042 14.9414 18.1009 14.1858 18.5436 14.1858C19.0354 14.1858 19.1338 14.4783 20.5356 16.0383C21.3471 16.9401 22.6997 17.6226 23.7818 17.6226C24.8147 17.6226 25.2574 17.1351 25.2328 16.4283C25.2328 14.2833 18.0026 14.4296 18.1501 9.87158C18.2485 6.58104 21.839 5.5817 24.4704 5.5817C26.0935 5.5817 29.4381 5.60607 29.2906 8.72598C29.2414 9.65221 29.1184 10.5053 28.4298 10.5053C27.7904 10.5053 27.5199 9.77408 26.5116 8.67723C26.0197 8.141 25.2328 7.26352 23.9294 7.26352C23.1424 7.26352 22.6997 7.75101 22.6997 8.40912C22.6997 10.7247 29.8316 10.1884 29.8316 14.7952C29.8316 17.842 26.8805 19.4994 23.0194 19.4994Z" fill="black"/>
<path d="M9.04551 19.4507C4.61884 19.4507 1.81529 17.4276 1.81529 12.7477V6.31293C1.81529 3.99737 1.81529 3.99737 0.929956 2.80303C0.634845 2.41304 0.708622 1.8768 1.29884 1.8768H6.97973C7.54536 1.8768 7.64373 2.41304 7.32403 2.80303C6.46329 3.99737 6.46329 3.99737 6.46329 6.31293V12.7477C6.46329 16.2333 7.81588 16.9158 10.4227 16.9158C11.7999 16.9158 13.9394 16.3795 13.9394 12.3578C13.9394 11.0903 13.8903 9.82283 13.8165 8.65286C13.3738 5.04546 12.6114 4.46048 11.7753 2.99802C11.4802 2.46179 11.5048 1.8768 12.095 1.8768H16.2757C16.866 1.8768 16.9397 2.48616 16.6446 2.9249C15.7593 4.26548 15.7593 4.26549 15.7593 6.89791V12.7477C15.7593 17.647 12.7836 19.4507 9.04551 19.4507Z" fill="black"/>
</svg>
