<svg width="22" height="22" viewBox="0 0 22 22" fill="none" xmlns="http://www.w3.org/2000/svg">
<path d="M18.625 6.16667H5.95833C5.62448 6.16605 5.29447 6.09534 4.98967 5.9591C4.68487 5.82286 4.41208 5.62414 4.18896 5.37579C4.4114 5.12649 4.68402 4.92702 4.98895 4.79045C5.29387 4.65388 5.62422 4.5833 5.95833 4.58333H20.2083C20.4183 4.58333 20.6197 4.49993 20.7681 4.35146C20.9166 4.20299 21 4.00163 21 3.79167C21 3.5817 20.9166 3.38034 20.7681 3.23187C20.6197 3.08341 20.4183 3 20.2083 3H5.95833C4.90852 3 3.9017 3.41704 3.15937 4.15937C2.41704 4.9017 2 5.90852 2 6.95833L2 14.875C2 15.9248 2.41704 16.9316 3.15937 17.674C3.9017 18.4163 4.90852 18.8333 5.95833 18.8333H18.625C19.2549 18.8333 19.859 18.5831 20.3044 18.1377C20.7498 17.6923 21 17.0882 21 16.4583V8.54167C21 7.91178 20.7498 7.30769 20.3044 6.86229C19.859 6.41689 19.2549 6.16667 18.625 6.16667ZM19.4167 16.4583C19.4167 16.8945 19.062 17.25 18.625 17.25H5.95833C4.64892 17.25 3.58333 16.1844 3.58333 14.875V6.95675C4.26863 7.47058 5.1018 7.74886 5.95833 7.75H18.625C19.062 7.75 19.4167 8.10546 19.4167 8.54167V16.4583ZM17.8333 12.5C17.8333 12.71 17.7499 12.9113 17.6015 13.0598C17.453 13.2083 17.2516 13.2917 17.0417 13.2917C16.8317 13.2917 16.6303 13.2083 16.4819 13.0598C16.3334 12.9113 16.25 12.71 16.25 12.5C16.25 12.29 16.3334 12.0887 16.4819 11.9402C16.6303 11.7917 16.8317 11.7083 17.0417 11.7083C17.2516 11.7083 17.453 11.7917 17.6015 11.9402C17.7499 12.0887 17.8333 12.29 17.8333 12.5Z" fill="black"/>
</svg>
