<svg width="22" height="22" viewBox="0 0 22 22" fill="none" xmlns="http://www.w3.org/2000/svg">
<path d="M19.3448 6.45857L13.1626 3.49371C12.4882 3.16875 11.7492 3 11.0006 3C10.252 3 9.51306 3.16875 8.83866 3.49371L2.65561 6.45857C2.16105 6.69781 1.74366 7.07122 1.45106 7.53621C1.15845 8.0012 1.0024 8.53905 1.00069 9.08844V10.0567C1.00069 11.1717 1.64983 12.2041 2.65561 12.6866L8.83199 15.6481C9.5064 15.9727 10.2451 16.1416 10.9936 16.1423C11.736 16.1423 12.4768 15.9756 13.1676 15.6423L19.3507 12.6566C19.8435 12.4166 20.2593 12.0434 20.5507 11.5791C20.8422 11.1149 20.9978 10.5782 20.9998 10.0301V9.08844C20.998 8.53905 20.842 8.0012 20.5494 7.53621C20.2568 7.07122 19.8394 6.69781 19.3448 6.45857ZM9.55946 4.99697C10.009 4.78022 10.5016 4.66765 11.0006 4.66765C11.4997 4.66765 11.9923 4.78022 12.4418 4.99697L18.239 7.77684L11.1036 11.1992C11.0011 11.2608 10.8986 11.1992 10.8986 11.1992L3.7614 7.77767L9.55946 4.99697ZM3.37725 11.1833C3.16506 11.0809 2.98596 10.9209 2.86041 10.7215C2.73487 10.5222 2.66794 10.2915 2.66728 10.0559V9.10094L10.1669 12.6974V14.3599C9.95607 14.3084 9.75068 14.2367 9.55362 14.1457L3.37725 11.1833ZM18.6274 11.1558L12.4443 14.1415C12.2484 14.2324 12.0441 14.3041 11.8344 14.3557V12.6974L19.334 9.10094V10.0301C19.333 10.265 19.2663 10.4949 19.1415 10.6939C19.0166 10.8928 18.8385 11.0529 18.6274 11.1558ZM20.9173 14.764C21.0132 14.963 21.0263 15.192 20.9534 15.4006C20.8806 15.6093 20.7279 15.7804 20.5289 15.8765L13.1685 19.4305C12.4907 19.759 11.7475 19.9302 10.9944 19.9313C10.2569 19.9313 9.51946 19.7663 8.83283 19.4363L1.47317 15.909C1.27382 15.8134 1.12062 15.6425 1.04724 15.434C0.973875 15.2254 0.986354 14.9963 1.08194 14.7969C1.17752 14.5976 1.34838 14.4444 1.55693 14.371C1.76547 14.2976 1.99462 14.3101 2.19397 14.4057L9.55279 17.9339C10.0037 18.1513 10.4979 18.264 10.9985 18.2634C11.4991 18.2629 11.9931 18.149 12.4435 17.9305L19.804 14.3765C20.0029 14.2805 20.2318 14.2673 20.4404 14.34C20.649 14.4127 20.8211 14.5652 20.9173 14.764Z" fill="black"/>
</svg>
