<svg width="93" height="93" viewBox="0 0 93 93" fill="none" xmlns="http://www.w3.org/2000/svg">
<g filter="url(#filter0_d_1_5)">
<rect x="14" y="10" width="65" height="65" rx="16" fill="#6772E5"/>
</g>
<path d="M44.1627 25.099C41.0031 25.5598 38.601 26.6602 36.8271 28.4752C34.8869 30.4502 34 32.7637 34 35.8201C34 37.6164 34.4527 39.328 35.2565 40.5788C35.7369 41.3124 37.0673 42.6196 37.8803 43.165C38.6656 43.6823 40.5965 44.6415 41.7606 45.093C42.1949 45.2528 42.6938 45.4503 42.8693 45.5162C43.0448 45.5914 43.5899 45.7889 44.0704 45.977C47.5442 47.2654 48.6066 48.2341 48.311 49.8234C48.1539 50.6886 47.6827 51.1683 46.6665 51.4974C45.8719 51.7607 43.7285 51.789 42.4074 51.5444C39.996 51.1118 37.557 50.2842 35.3674 49.1745L34.3696 48.6667V53.2278C34.3696 57.5539 34.3788 57.789 34.5359 57.8737C34.9054 58.0712 36.5037 58.6448 37.5847 58.9646C41.3726 60.0649 45.4469 60.3 48.7822 59.6135C50.6577 59.2185 52.6163 58.4003 53.9375 57.4505C56.8107 55.3815 58.3074 51.8924 57.9471 48.0742C57.6238 44.6509 55.9977 42.2998 52.7087 40.4848C51.8772 40.0333 50.2234 39.3468 48.3849 38.7073C45.7795 37.7857 44.985 37.4283 44.3013 36.864C43.0079 35.7919 43.4052 33.9863 45.0589 33.469C45.7241 33.2527 47.7659 33.2339 49.0131 33.422C51.3413 33.77 53.7989 34.5223 55.545 35.4157C55.8314 35.5662 56.0993 35.6885 56.1271 35.6885C56.1548 35.6885 56.1733 33.6571 56.1733 31.1837V26.6696L54.9075 26.2464C53.4847 25.7761 52.0712 25.4282 50.6299 25.2025C49.3088 24.9862 45.373 24.9297 44.1627 25.099Z" fill="white"/>
<defs>
<filter id="filter0_d_1_5" x="0" y="0" width="93" height="93" filterUnits="userSpaceOnUse" color-interpolation-filters="sRGB">
<feFlood flood-opacity="0" result="BackgroundImageFix"/>
<feColorMatrix in="SourceAlpha" type="matrix" values="0 0 0 0 0 0 0 0 0 0 0 0 0 0 0 0 0 0 127 0" result="hardAlpha"/>
<feOffset dy="4"/>
<feGaussianBlur stdDeviation="7"/>
<feComposite in2="hardAlpha" operator="out"/>
<feColorMatrix type="matrix" values="0 0 0 0 0.407843 0 0 0 0 0.372549 0 0 0 0 1 0 0 0 0.15 0"/>
<feBlend mode="normal" in2="BackgroundImageFix" result="effect1_dropShadow_1_5"/>
<feBlend mode="normal" in="SourceGraphic" in2="effect1_dropShadow_1_5" result="shape"/>
</filter>
</defs>
</svg>
