<svg width="22" height="22" viewBox="0 0 22 22" fill="none" xmlns="http://www.w3.org/2000/svg">
<path d="M17.6 20.1H17.5H16H15.9V20V16.2179C15.8994 15.6563 15.6761 15.118 15.2791 14.7209C14.882 14.3239 14.3437 14.1006 13.7821 14.1H7.71785C7.15634 14.1006 6.61798 14.3239 6.22093 14.7209C5.82391 15.118 5.6006 15.6563 5.6 16.2178C5.6 16.2178 5.6 16.2178 5.6 16.2179M17.6 20.1L5.5 16.2178L5.6 16.2179M17.6 20.1V20V16.2178V16.2176C17.5988 15.2055 17.1962 14.2352 16.4805 13.5195C15.7648 12.8038 14.7945 12.4012 13.7824 12.4H13.7822H7.71775H7.71763C6.70551 12.4012 5.73519 12.8038 5.01951 13.5195C4.30383 14.2352 3.90122 15.2055 3.9 16.2176V16.2178V20V20.1H4H5.5H5.6V20L5.6 16.2179M17.6 20.1L5.6 16.2179M10.75 11.1H10.7501C11.9697 11.0988 13.139 10.6138 14.0014 9.75138C14.8638 8.88899 15.3488 7.7197 15.35 6.5001V6.5C15.35 5.59021 15.0802 4.70084 14.5748 3.94438C14.0693 3.18791 13.3509 2.59832 12.5103 2.25016C11.6698 1.90199 10.7449 1.8109 9.85258 1.98839C8.96027 2.16588 8.14063 2.60399 7.49731 3.24731C6.85399 3.89063 6.41588 4.71027 6.23839 5.60259C6.0609 6.4949 6.15199 7.41981 6.50015 8.26035C6.84832 9.10089 7.43791 9.81931 8.19438 10.3248C8.95084 10.8302 9.8402 11.1 10.75 11.1ZM9.13885 4.08874C9.61575 3.77008 10.1764 3.6 10.75 3.6C11.5191 3.6 12.2568 3.90554 12.8006 4.44939C13.3445 4.99325 13.65 5.73087 13.65 6.5C13.65 7.07357 13.4799 7.63425 13.1613 8.11115C12.8426 8.58806 12.3897 8.95976 11.8598 9.17925C11.3299 9.39875 10.7468 9.45618 10.1842 9.34428C9.62169 9.23238 9.10496 8.95618 8.69939 8.55061C8.29382 8.14504 8.01762 7.62831 7.90572 7.06576C7.79382 6.50322 7.85125 5.92013 8.07075 5.39022C8.29024 4.86031 8.66194 4.4074 9.13885 4.08874Z" fill="white" stroke="white" stroke-width="0.2"/>
</svg>
