<svg width="18" height="18" viewBox="0 0 18 18" fill="none" xmlns="http://www.w3.org/2000/svg">
<path fillRule="evenodd" clipRule="evenodd" d="M8.78321 3.28204C3.46964 3.28204 0.281982 9.09783 0.281982 9.09783C0.281982 9.09783 3.4623 14.9136 8.78321 14.9136C14.1041 14.9136 17.282 9.09783 17.282 9.09783C17.282 9.09783 14.1017 3.28204 8.78076 3.28204H8.78321ZM8.78321 13.2523C6.44445 13.2523 4.52403 11.373 4.52403 9.09783C4.52403 6.82263 6.43711 4.94334 8.77342 4.94334C11.1097 4.94334 13.0326 6.81261 13.0326 9.09783C13.0326 11.3831 11.1293 13.2523 8.78321 13.2523ZM11.3323 9.09783C11.3323 10.5512 10.0578 11.591 8.78321 11.591C7.29335 11.591 6.23651 10.5512 6.23651 9.09783C6.26194 8.42561 6.54213 7.79 7.01761 7.3259C7.49309 6.86181 8.12643 6.60578 8.78321 6.61215C10.0578 6.61215 11.3323 7.86502 11.3323 9.10535" fill="#6B7280"/>
</svg>
